<?xml version="1.0" encoding="iso-8859-1"?>
<!-- Generator: Adobe Illustrator 16.0.0, SVG Export Plug-In . SVG Version: 6.00 Build 0)  -->
<!DOCTYPE svg PUBLIC "-//W3C//DTD SVG 1.1//EN" "http://www.w3.org/Graphics/SVG/1.1/DTD/svg11.dtd">
<svg version="1.1" id="Capa_1" xmlns="http://www.w3.org/2000/svg" xmlns:xlink="http://www.w3.org/1999/xlink" x="0px" y="0px"
	 width="919.7px" height="919.7px" viewBox="0 0 919.7 919.7" style="enable-background:new 0 0 919.7 919.7;" xml:space="preserve"
	>
<g>
	<path d="M884.894,832.7c-1.4,0-2.7,0.1-4.101,0.3l-245.699,31.8c-12.601,1.601-21.4-12.2-14.601-23c3.7-5.7,7.3-11.5,10.9-17.3
		c9.5-15.4-3.2-35.9-20.8-35.9c-1.2,0-2.4,0.101-3.7,0.301l-322,48.399l-38.5,5.8l-105,15.801c-11.9,1.8-19.9,11.899-18.9,24
		c0.4,5.399,2.6,10.5,6.1,14.3c4.1,4.5,9.8,7,16,7c1.2,0,2.4-0.101,3.7-0.3l383.8-57.7c13.1-2,22.1,12.8,14.399,23.6
		c-2.5,3.4-5,6.9-7.5,10.3c-6.899,9.4-5.3,25.101,2.7,33.2c4.1,4.2,9.3,6.4,14.8,6.4c0.601,0,1.3,0,1.9-0.101h0.1h0.101
		l331.3-42.199h0.1h0.101c5.699-0.9,10.699-4.2,14-9.301c3.6-5.6,4.899-12.5,3.3-18.699C904.793,839.3,895.993,832.7,884.894,832.7z
		"/>
	<path d="M107.493,836.7c1.2-1.4,0.9-3.601-0.5-4.7l0,0l-43.3-35.3c-0.5-0.4-0.9-0.8-1.3-1.101c-1.4-1.3-3.6-1-4.8,0.5l-45.2,56.7
		c-1.9,2.3,0,5.8,3,5.5l80.1-8.2c0.9-0.1,1.7-0.5,2.3-1.199L107.493,836.7z"/>
	<path d="M152.593,561.4L75.293,744.3c-3.6,8.5-2.2,18,3.3,25.101c1.1,1.5,2.4,2.8,3.9,4l43.3,35.3c0.9,0.7,1.9,1.399,2.8,2
		c4,2.399,8.5,3.7,13,3.7c5,0,10-1.5,14.4-4.5l161.4-113.4c-1.601-1.1-3.101-2.3-4.601-3.5l-156.7-128.6
		C154.894,563.4,153.793,562.4,152.593,561.4z"/>
	<path d="M169.793,469.1c-10.7,11.9-14.6,27.4-12.1,41.9c1.2,7,3.9,13.7,8,19.7c2.6,3.8,5.8,7.399,9.6,10.5l156.7,128.6
		c4,3.3,8.3,5.8,12.8,7.601c6.101,2.5,12.5,3.699,18.9,3.699c0.7,0,1.3,0,2-0.1c14.7-0.6,29-7.5,38.4-20.4l13.1-17.6l349.1-469
		c15.801-21.5,11.9-51.5-8.699-68.4l-116.5-94.4C631.793,3.7,620.693,0,609.493,0c-13.7,0-27.3,5.6-37.2,16.5L183.894,453.2
		L169.793,469.1z"/>
</g>
<g>
</g>
<g>
</g>
<g>
</g>
<g>
</g>
<g>
</g>
<g>
</g>
<g>
</g>
<g>
</g>
<g>
</g>
<g>
</g>
<g>
</g>
<g>
</g>
<g>
</g>
<g>
</g>
<g>
</g>
</svg>
